<?xml version="1.0" encoding="utf-8"?>
<svg version="1.1" xmlns:xlink="http://www.w3.org/1999/xlink" width="22px" height="26px" xmlns="http://www.w3.org/2000/svg">
  <g transform="matrix(1 0 0 1 -109 -130 )">
    <path d="M 20.3863314180533 3.85505875219691  C 20.3863314180533 1.95642777860805  18.6501464792327 0.417283267411999  16.5084538202621 0.417283267411999  C 16.5056345617009 0.417283267411999  16.5028153039781 0.417285992938393  16.4999960521224 0.417291443986314  C 14.3631761151899 0.437553189329037  12.6365255646313 1.96824537437425  12.613669921875 3.86255663339121  L 12.613669921875 8.13168959430462  C 12.6365255646313 10.0260008533216  14.3631761151899 11.5566930383668  16.4999960521224 11.5769547837095  C 18.6368159938876 11.5566930442901  20.3634665518662 10.0260008575415  20.3863221947455 8.13168959430462  L 20.3863221947455 3.86255663339121  C 20.3863283436155 3.86005734337474  20.3863314180533 3.85755804815781  20.3863314180533 3.85505875219691  Z M 18.6966811775244 3.92241577720889  C 18.6966811775244 3.92742847557335  18.6966591753067 3.93244115496316  18.696615171371 3.93745370153357  L 18.696615171371 8.20658666244698  C 18.6855487017012 8.98971900349682  18.1560287817442 9.6938556965139  17.3448495699975 10.0041163198061  L 17.3448495699975 10.3786016714893  L 15.655142546623 10.3786016714893  L 15.655142546623 10.0041163198061  C 14.8439633300341 9.69385569982487  14.3144434046991 8.98971900610296  14.3033769328737 8.20658666244698  L 14.3033769328737 3.93745370153357  C 14.3258821223485 2.87034970683717  15.2962819952093 2.0100809620837  16.4999960521224 1.99012989691838  C 16.5056503021275 1.99009088700962  16.5113047019561 1.99007138183368  16.5169591231879 1.99007138183368  C 17.7207863726678 1.99007138183368  18.6966811775244 2.85521143622218  18.6966811775244 3.92241577720889  Z M 21.9609856320645 13  L 21.9609856320645 5.41666666666667  L 11.0390070883893 5.41666666666667  L 11.0390070883893 13  L 21.9609856320645 13  Z M 15.7198550324136 9.1922078167729  C 15.2377219152825 8.89596726638766  14.9388777501435 8.33240620042484  14.9397137103142 7.72101538147994  C 14.9813206409015 6.79906781518289  15.6678453636301 6.07558692263572  16.4999963545129 6.07674148619411  C 17.3617166757575 6.07674148619411  18.0602790101397 6.85165358914887  18.0602790101397 7.80755611147632  C 18.0830705007739 8.42530167344085  17.7779451733147 9.0007077708464  17.2801376880402 9.27874854676932  L 17.2801376880402 11.4422668347106  L 15.7198550324136 11.4422668347106  L 15.7198550324136 9.1922078167729  Z M 17.1034807477679 12.188949773341  C 17.2795758928571 12.0241751965182  17.2692173549107 11.7594250337578  17.0848353794642 11.6020560558932  C 17.0579031808036 11.5872448579764  17.0123256138392 11.5465140637057  16.937744140625 11.4798636730806  C 16.8175851004464 11.3798880871432  16.6870675223214 11.2725069022473  16.5399762834821 11.1484631196953  C 16.1235630580358 10.8096569673514  15.7154366629464 10.4689994152682  15.3176688058036 10.1468558605806  C 15.2720912388392 10.1135306652681  15.2720912388392 10.1135306652681  15.2244419642857 10.0727998709973  C 14.6961565290179 9.65068073037227  14.2610979352679 9.30261757933069  13.9379115513393 9.05453001422644  C 13.7535295758929 8.91382363401819  13.5960797991071 8.80644244912235  13.4924944196429 8.732386459539  C 13.4179129464286 8.68239866657023  13.3619768415179 8.64907347125775  13.29775390625 8.62500527464309  C 13.2231724330358 8.59168007933061  13.1589494977678 8.57501748167441  13.0574358258929 8.57501748167441  C 12.7984723772321 8.5824230806327  12.5933733258929 8.76571165485148  12.5933733258929 8.99713662229944  L 12.5933733258929 12.7221528983411  L 16.7616489955357 12.7221528983411  L 16 12.3074393566744  L 16 24.7303316092785  L 16.7616489955357 24  L 4.72295619419647 24  C 3.95435267857141 24.3156180676119  3.33284040178569 23.7601981457369  4 23.0733288423514  L 4 9.0137992199556  L 2.86877790178575 9.42851276162227  L 11.2032575334821 9.42851276162227  C 11.4622209821429 9.42851276162227  11.6673200334821 9.24707558714319  11.6673200334821 9.0137992199556  C 11.6673200334821 8.78237425250768  11.4642926897321 8.59908567828898  11.2032575334821 8.59908567828898  L 3 8.59908567828898  L 3 23.0733288423514  C 2.40678710937496 24.2156424816744  3.44471261160716 25.1431937512056  4.72295619419647 24.7962962962963  L 17 24.7962962962963  L 17 11.9112398124035  L 13.0574358258929 11.9112398124035  L 13.5194266183036 12.3259533540702  L 13.5194266183036 9.0137992199556  C 13.5194266183036 9.23781858844527  13.3163992745536 9.41185016396602  13.0740094866071 9.41925576292435  C 12.9911411830357 9.41925576292435  12.9434919084821 9.41185016396602  12.8979143415179 9.38593056761194  C 12.8896275111607 9.38593056761194  12.9165597098214 9.39333616657019  12.9434919084821 9.40999876422644  C 13.0263602120536 9.46739215615352  13.1651646205358 9.5581107433931  13.3329729352679 9.69141152464319  C 13.6478724888393 9.93209349078902  14.0746442522321 10.2708996431327  14.5925711495536 10.6837617850598  C 14.6381487165179 10.7170869803723  14.6381487165179 10.7170869803723  14.6857979910714 10.7578177746431  C 15.0752790178571 11.0725557303723  15.4916922433036 11.411361882716  15.8998186383929 11.7501680350599  C 16.0489815848214 11.8668062186536  16.1774274553571 11.9815930025078  16.2975864955357 12.0815685884452  C 16.37216796875 12.1389619803724  16.4177455357143 12.1815441743828  16.4467494419642 12.2056123709973  C 16.6311314174108 12.3629813488619  16.9273856026786 12.3537243501639  17.1034807477679 12.188949773341  Z M 3.34319893973213 16.041712631414  L 2.4171456473214 16.041712631414  L 2.4171456473214 16.0491182303723  L 0.565039062500017 16.0491182303723  L 0.565039062500017 23  L 19.0861049107143 23  L 19.0861049107143 16  L 3.34319893973213 16  L 3.34319893973213 16.041712631414  Z M 8.40023716517861 17.1229300793306  L 8.40023716517861 17.6450248058931  L 5.66765485491071 21.1793469087578  L 8.48310546875004 21.1793469087578  L 8.48310546875004 21.8328910168306  L 4.56550641741069 21.8328910168306  L 4.56550641741069 21.3033906913099  L 7.28773018973216 17.7857311861015  L 4.58415178571431 17.7857311861015  L 4.58415178571431 17.1229300793306  L 8.40023716517861 17.1229300793306  Z M 9.32629045758923 17.1247814790703  L 10.2336983816964 17.1247814790703  L 10.2336983816964 21.8328910168306  L 9.32629045758923 21.8328910168306  L 9.32629045758923 17.1247814790703  Z M 12.268115234375 20.0796154634452  L 12.268115234375 20.0870210624036  L 12.2701869419643 20.0870210624036  L 12.2701869419643 21.8328910168306  L 11.3524204799108 21.8328910168306  L 11.3524204799108 17.1247814790703  L 13.370263671875 17.1247814790703  C 13.9627720424108 17.1247814790703  14.4268345424107 17.2654878592785  14.7686662946429 17.5376436209973  C 15.110498046875 17.8116507824556  15.2865931919642 18.174525131414  15.2865931919642 18.6225638683931  C 15.2865931919642 19.0854138032889  15.1208565848214 19.4427339530286  14.776953125 19.6982271170911  C 14.4351213727679 19.9555716808931  13.9627720424108 20.0796154634452  13.3516183035714 20.0796154634452  L 12.268115234375 20.0796154634452  Z M 12.2805454799108 17.7783255871431  L 12.2805454799108 19.4260713553723  L 12.2701869419643 19.4260713553723  L 13.3723353794643 19.4260713553723  C 13.6955217633929 19.4260713553723  13.9461983816964 19.3594209647474  14.1140066964286 19.2187145845389  C 14.2797433035714 19.0780082043307  14.3729701450893 18.8873140311536  14.3729701450893 18.6225638683931  C 14.3729701450893 18.3652193045911  14.2901018415179 18.1671195324556  14.1140066964286 18.009750554591  C 13.9379115513393 17.8523815767264  13.6975934709821 17.7783255871431  13.4013392857142 17.7783255871431  L 12.2805454799108 17.7783255871431  Z " fill-rule="nonzero" fill="#7f7f7f" stroke="none" transform="matrix(1 0 0 1 109 130 )" />
  </g>
</svg>