<?xml version="1.0" encoding="utf-8"?>
<svg version="1.1" xmlns:xlink="http://www.w3.org/1999/xlink" width="22px" height="22px" xmlns="http://www.w3.org/2000/svg">
  <g transform="matrix(1 0 0 1 -72 -134 )">
    <path d="M 4.4 22  L 4.4 19.8  L 6.6 19.8  L 6.6 22  L 4.4 22  Z M 0 6.6  L 0 4.4  L 2.2 4.4  L 2.2 6.6  L 0 6.6  Z M 0 11  L 0 8.8  L 2.2 8.8  L 2.2 11  L 0 11  Z M 4.4 2.2  L 4.4 0  L 0 0  L 0 2.2  L 4.4 2.2  Z M 15.4 2.2  L 15.4 0  L 17.6 0  L 17.6 2.2  L 15.4 2.2  Z M 11 2.2  L 11 0  L 13.2 0  L 13.2 2.2  L 11 2.2  Z M 0 17.6  L 0 19.8  L 0 22  L 2.2 22  L 2.2 17.6  L 0 17.6  Z M 6.6 2.2  L 6.6 0  L 8.8 0  L 8.8 2.2  L 6.6 2.2  Z M 0 15.4  L 0 13.2  L 2.2 13.2  L 2.2 15.4  L 0 15.4  Z M 19.8 13.2  L 19.8 11  L 22 11  L 22 13.2  L 19.8 13.2  Z M 19.8 17.6  L 19.8 15.4  L 22 15.4  L 22 17.6  L 19.8 17.6  Z M 22 0  L 19.8 0  L 19.8 4.4  L 22 4.4  L 22 0  Z M 19.8 8.8  L 19.8 6.6  L 22 6.6  L 22 8.8  L 19.8 8.8  Z M 8.8 22  L 8.8 19.8  L 11 19.8  L 11 22  L 8.8 22  Z M 22 19.8  L 17.6 19.8  L 17.6 22  L 22 22  L 22 19.8  Z M 13.2 22  L 13.2 19.8  L 15.4 19.8  L 15.4 22  L 13.2 22  Z M 12.1 12.1  L 17.6 12.1  L 17.6 9.9  L 12.1 9.9  L 9.9 9.9  L 4.4 9.9  L 4.4 12.1  L 9.9 12.1  L 12.1 12.1  Z " fill-rule="nonzero" fill="#7f7f7f" stroke="none" transform="matrix(1 0 0 1 72 134 )" />
  </g>
</svg>