<?xml version="1.0" encoding="utf-8"?>
<svg version="1.1" xmlns:xlink="http://www.w3.org/1999/xlink" width="24px" height="22px" xmlns="http://www.w3.org/2000/svg">
  <g transform="matrix(1 0 0 1 -146 -134 )">
    <path d="M 14.73 17.2686746987952  C 14.5050000000001 16.8710843373494  13.98 16.8710843373494  13.6800000000001 17.2686746987952  L 12.78 18.3620481927711  L 12.78 9.9132530120482  C 12.78 9.3168674698795  12.405 8.91927710843373  12.03 8.91927710843373  C 11.5799999999999 8.91927710843373  11.28 9.41626506024096  11.28 9.9132530120482  L 11.28 18.3620481927711  L 10.3800000000001 17.2686746987952  C 10.0799999999999 16.8710843373494  9.55500000000006 16.8710843373494  9.25500000000011 17.2686746987952  C 8.95499999999993 17.666265060241  8.95499999999993 18.2626506024096  9.25500000000011 18.6602409638554  L 11.5050000000001 21.5427710843373  C 11.5799999999999 21.6421686746988  11.655 21.7415662650603  11.73 21.7415662650603  C 12.03 21.9403614457831  12.3299999999999 21.8409638554217  12.5550000000001 21.5427710843373  L 14.73 18.6602409638554  C 15.03 18.2626506024096  15.03 17.666265060241  14.73 17.2686746987952  Z M 23.9318181818182 11.6666666666667  C 23.9318181818182 9.00000000000001  22.0568181818182 6.66666666666667  19.5 6.00000000000001  C 18.8181818181818 2.58333333333333  15.75 0  12 0  C 8.25 0  5.18181818181824 2.58333333333333  4.5 6.00000000000001  C 1.94318181818176 6.66666666666667  0.0681818181817562 9.00000000000001  0.0681818181817562 11.6666666666667  C 0.0681818181817562 14.9166666666667  2.71022727272725 17.5  6.03409090909099 17.5  L 6.88636363636374 17.5  L 6.88636363636374 15.8333333333333  L 6.03409090909099 15.8333333333333  C 3.64772727272725 15.8333333333333  1.77272727272725 14  1.77272727272725 11.6666666666667  C 1.77272727272725 9.33333333333335  3.64772727272725 7.49999999999999  6.03409090909099 7.49999999999999  C 6.03409090909099 4.25000000000001  8.67613636363626 1.66666666666665  12 1.66666666666665  C 15.3238636363637 1.66666666666665  17.965909090909 4.25000000000001  17.965909090909 7.49999999999999  C 20.3522727272727 7.49999999999999  22.2272727272727 9.33333333333335  22.2272727272727 11.6666666666667  C 22.2272727272727 14  20.3522727272727 15.8333333333333  17.965909090909 15.8333333333333  L 17.1136363636363 15.8333333333333  L 17.1136363636363 17.5  L 17.965909090909 17.5  C 21.2897727272727 17.5  23.9318181818182 14.9166666666667  23.9318181818182 11.6666666666667  Z " fill-rule="nonzero" fill="#7f7f7f" stroke="none" transform="matrix(1 0 0 1 146 134 )" />
  </g>
</svg>