<?xml version="1.0" encoding="utf-8"?>
<svg version="1.1" xmlns:xlink="http://www.w3.org/1999/xlink" width="14px" height="14px" xmlns="http://www.w3.org/2000/svg">
  <g transform="matrix(1 0 0 1 -891 -141 )">
    <path d="M 12.9659090909091 3.51988636363636  L 12.9659090909091 1.64090465198864  L 5.98890269886364 8.61791104403409  C 5.79476207386364 8.81205166903409  5.47996715198864 8.81205166903409  5.28581099076705 8.61791104403409  C 5.09167036576705 8.4237548828125  5.09167036576705 8.10897549715909  5.28581099076705 7.9148193359375  L 12.1665394176136 1.03409090909091  L 10.4801136363636 1.03409090909091  C 10.2055419921875 1.03409090909091  9.98295454545455 0.811503462357954  9.98295454545455 0.536931818181818  C 9.98295454545455 0.262360174005682  10.2055419921875 0.0397727272727273  10.4801136363636 0.0397727272727273  L 13.4630681818182 0.0397727272727273  C 13.7376398259943 0.0397727272727273  13.9602272727273 0.262360174005682  13.9602272727273 0.536931818181818  L 13.9602272727273 3.51988636363636  C 13.9602272727273 3.7944580078125  13.7376398259943 4.01704545454545  13.4630681818182 4.01704545454545  C 13.188496537642 4.01704545454545  12.9659090909091 3.7944580078125  12.9659090909091 3.51988636363636  Z M 12.9659090909091 12.8416193181818  L 12.9659090909091 7  L 12.9659090909091 6.70481178977273  C 12.9659090909091 6.43024014559659  13.188496537642 6.20765269886364  13.4630681818182 6.20765269886364  C 13.7376398259943 6.20765269886364  13.9602272727273 6.43024014559659  13.9602272727273 6.70481178977273  L 13.9602272727273 13.4630681818182  C 13.9602272727273 13.7376398259943  13.7376398259943 13.9602272727273  13.4630681818182 14  L 0.536931818181818 14  C 0.262360174005682 13.9602272727273  0.0397727272727273 13.7376398259943  0 13.4630681818182  L 0 0.536931818181818  C 0.0397727272727273 0.262360174005682  0.262360174005682 0.0397727272727273  0.536931818181818 0.0397727272727273  L 7.21750710227273 0.0397727272727273  C 7.49207874644886 0.0397727272727273  7.71466619318182 0.262360174005682  7.71466619318182 0.536931818181818  C 7.71466619318182 0.811503462357954  7.49207874644886 1.03409090909091  7.21750710227273 1.03409090909091  L 1.15838068181818 1.03409090909091  C 1.08973733578097 1.03409090909091  1.03409090909091 1.08973733578097  1 1.15838068181818  L 1 12.8416193181818  C 1.03409090909091 12.910262664219  1.08973733578097 12.9659090909091  1.15838068181818 13  L 12.8416193181818 13  C 12.910262664219 12.9659090909091  12.9659090909091 12.910262664219  12.9659090909091 12.8416193181818  Z " fill-rule="nonzero" fill="#0BB3B7" stroke="none" transform="matrix(1 0 0 1 891 141 )" />
  </g>
</svg>