<svg id="图层_1" data-name="图层 1" xmlns="http://www.w3.org/2000/svg" viewBox="0 0 80 60"><defs><style>.cls-1{fill:#bfbfbf;}.cls-2{fill:#fff;}</style></defs><title>素材0-</title><path class="cls-1" d="M73.91,5.23H25.17S21.83,0,18.37,0H2.67A2.59,2.59,0,0,0,.17,2.68v4a2.59,2.59,0,0,0,2.5,2.68H74c1.38,0,2.35-.6,2.35-2.07v0C76.36,5.88,75.3,5.23,73.91,5.23Z"/><path class="cls-1" d="M77.78,11.87h-75a2.59,2.59,0,0,0-2.5,2.67V57.35A2.6,2.6,0,0,0,2.78,60h75a2.6,2.6,0,0,0,2.5-2.68V14.54A2.59,2.59,0,0,0,77.78,11.87Z"/><path class="cls-2" d="M26.72,38.2H22V43H19.81V38.2H15V36.12h4.77V31.37H22v4.75h4.77Z"/><path class="cls-2" d="M37.27,41.44a14.89,14.89,0,0,1-2.78,1.37,25.4,25.4,0,0,1-3.29,1.08l-1-1.91a26.27,26.27,0,0,0,3.09-.93,11,11,0,0,0,2.39-1.13L32.83,40l-2,0-.32-1.94c.46,0,1.17,0,2.14,0l2.31,0c-1-.72-1.86-1.27-2.45-1.63L33.9,35c.16.09.57.35,1.22.79.43-.42.83-.84,1.21-1.26H30.59V32.92h6.89v-.68H31.62V30.89h5.86v-.65H31V28.69h6.51V27.9h2.61v.79h6.75v1.55H40.09v.65h5.85v1.35H40.09v.68h7v1.59H38.64l.44.19a30.66,30.66,0,0,1-2.36,2.15l1.2.81a22.32,22.32,0,0,0,3-3l2.36.92A30,30,0,0,1,40.59,38l2.51-.09c-.34-.32-.64-.59-.9-.82L44,36q.72.6,3.57,3.45l-2,1.07c-.18-.23-.48-.55-.9-1-1,.08-2.47.17-4.57.27V44H37.5V39.86l-1.77.06Zm10.1.44-1.32,2a18,18,0,0,1-2.9-1.05,20.15,20.15,0,0,1-2.75-1.47l1.49-1.55A20.1,20.1,0,0,0,47.37,41.88Z"/><path class="cls-2" d="M51.83,38.09a20.33,20.33,0,0,1-2.21,3.26l-1.44-1.48a19.34,19.34,0,0,0,3.59-6.59H48.86V31.39h3V28.1h2.32v3.29h1.76v1.89H54.15v.86a15.5,15.5,0,0,0,2.46,2.67l-1.18,1.8a13.33,13.33,0,0,1-1.28-1.37v6.7H51.83Zm9.4-1.33A32,32,0,0,1,58.56,40a18.91,18.91,0,0,1-2.63,2.41l-1.4-1.6a22.57,22.57,0,0,0,3.37-3.44,23,23,0,0,0,2.81-4.07h-4.2v-2h4.72V28H63.6V31.3h1.93v2H63.6v8.86A1.43,1.43,0,0,1,63,43.38a2.29,2.29,0,0,1-1.39.47H59l-.27-2.21h2a.46.46,0,0,0,.53-.51Z"/></svg>