<svg id="图层_1" data-name="图层 1" xmlns="http://www.w3.org/2000/svg" viewBox="0 0 80 60"><defs><style>.cls-1{fill:#bfbfbf;}.cls-2{fill:#fff;}</style></defs><title>结果0--</title><path class="cls-1" d="M73.91,5.23H25.17S21.83,0,18.37,0H2.67A2.59,2.59,0,0,0,.17,2.68v4a2.59,2.59,0,0,0,2.5,2.68H74c1.38,0,2.35-.6,2.35-2.07v0C76.36,5.88,75.3,5.23,73.91,5.23Z"/><path class="cls-1" d="M77.41,11.84h-75a2.6,2.6,0,0,0-2.5,2.68V57.33A2.59,2.59,0,0,0,2.41,60h75a2.59,2.59,0,0,0,2.5-2.67V14.52A2.6,2.6,0,0,0,77.41,11.84Z"/><path class="cls-2" d="M26.33,37H21.56v4.75H19.42V37H14.65V34.88h4.77V30.13h2.14v4.75h4.77Z"/><path class="cls-2" d="M32.47,37.82c-.09.9-.23,1.86-.43,2.88A13.26,13.26,0,0,1,31.42,43l-1.62-.38a25.38,25.38,0,0,0,.85-4.88Zm2.59,6.25H32.88v-7c-1.21.11-2.11.17-2.68.2L30,35.52c.48,0,.94,0,1.35,0,.32-.38.71-.87,1.15-1.46-.68-.73-1.53-1.62-2.57-2.66L31.21,30l.32.31A17.13,17.13,0,0,0,33,27.77l1.89.7a27.69,27.69,0,0,1-2.13,3.13l.85.9a20.88,20.88,0,0,0,1.75-2.84l1.91.83a54.8,54.8,0,0,1-3.66,4.92c.55,0,1.18-.07,1.89-.13-.21-.76-.34-1.22-.41-1.38l1.69-.41c.28.83.62,2,1,3.47L36,37.32c0-.09-.06-.27-.13-.53l-.84.1Zm2.56-2.7L36,41.59a31,31,0,0,1-.51-3.65L37,37.72Zm9-5.75H37.7V33.73h3.22V32H37.31V30.09h3.61V28.15h2.45v1.94H47V32H43.37v1.77h3.21Zm-2.47,7.43H40.17v.7H37.94v-7h8.44v7H44.11Zm-3.94-1.87h3.94V38.62H40.17Z"/><path class="cls-2" d="M55.14,40a20.31,20.31,0,0,1-6.51,3.14l-.81-1.87a19.47,19.47,0,0,0,5.51-2.58H48.49V36.8h6.62V35.69H49.46V28.31h14v7.38H57.56V36.8h6.89v1.91H59.37A17.83,17.83,0,0,0,65.17,41L64,43.16A17,17,0,0,1,57.52,40v3.58H55.14Zm0-10H51.84v1.24h3.27Zm0,2.68H51.84v1.22h3.27ZM61,31.28V30H57.56v1.24Zm0,2.66V32.72H57.56v1.22Z"/></svg>